<svg width="1232" height="38" viewBox="0 0 1232 38" fill="none" xmlns="http://www.w3.org/2000/svg">
<path fill-rule="evenodd" clip-rule="evenodd" d="M38 19C38 29.4934 29.4934 38 19 38C8.50659 38 0 29.4934 0 19C0 8.50659 8.50659 0 19 0C29.4934 0 38 8.50659 38 19ZM593 19V21L38 21V19H593ZM631 19C631 8.50659 622.493 0 612 0C601.507 0 593 8.50659 593 19C593 29.4934 601.507 38 612 38C622.493 38 631 29.4934 631 19ZM1194 19V21L631 21V19H1194ZM1194 19C1194 29.4934 1202.51 38 1213 38C1223.49 38 1232 29.4934 1232 19C1232 8.50659 1223.49 0 1213 0C1202.51 0 1194 8.50659 1194 19ZM612 36C621.389 36 629 28.3888 629 19C629 9.61116 621.389 2 612 2C602.611 2 595 9.61116 595 19C595 28.3888 602.611 36 612 36ZM1230 19C1230 28.3888 1222.39 36 1213 36C1203.61 36 1196 28.3888 1196 19C1196 9.61116 1203.61 2 1213 2C1222.39 2 1230 9.61116 1230 19Z" fill="url(#paint0_linear_10_43)"/>
<path d="M18.4965 27V12.7055L15.38 14.5915V12.303L18.4965 10.44H20.578V27H18.4965Z" fill="white"/>
<path d="M606.15 26.9885L606.162 25.1485L613.51 18.536C614.123 17.984 614.534 17.4627 614.741 16.972C614.955 16.4737 615.063 15.9638 615.063 15.4425C615.063 14.8062 614.917 14.2312 614.626 13.7175C614.334 13.2038 613.936 12.7975 613.43 12.4985C612.931 12.1995 612.364 12.05 611.728 12.05C611.068 12.05 610.482 12.2072 609.968 12.5215C609.454 12.8282 609.048 13.2383 608.749 13.752C608.458 14.2657 608.316 14.8253 608.324 15.431H606.231C606.231 14.3883 606.472 13.4683 606.955 12.671C607.438 11.866 608.094 11.2373 608.922 10.785C609.757 10.325 610.704 10.095 611.762 10.095C612.789 10.095 613.709 10.3327 614.522 10.808C615.335 11.2757 615.975 11.9158 616.443 12.7285C616.918 13.5335 617.156 14.4458 617.156 15.4655C617.156 16.1862 617.064 16.811 616.879 17.34C616.703 17.869 616.427 18.3597 616.052 18.812C615.676 19.2567 615.204 19.732 614.637 20.238L608.531 25.7235L608.266 25.0335H617.156V26.9885H606.15Z" fill="black"/>
<path d="M1213.15 27.322C1212.33 27.322 1211.57 27.1725 1210.86 26.8735C1210.16 26.5668 1209.55 26.1375 1209.04 25.5855C1208.53 25.0258 1208.16 24.3627 1207.92 23.596L1209.89 23.0325C1210.14 23.7992 1210.56 24.3818 1211.15 24.7805C1211.74 25.1792 1212.41 25.3747 1213.14 25.367C1213.82 25.3517 1214.4 25.1983 1214.89 24.907C1215.39 24.608 1215.77 24.2017 1216.04 23.688C1216.32 23.1743 1216.45 22.5802 1216.45 21.9055C1216.45 20.8782 1216.15 20.0463 1215.53 19.41C1214.92 18.766 1214.11 18.444 1213.12 18.444C1212.84 18.444 1212.55 18.4823 1212.24 18.559C1211.95 18.6357 1211.67 18.743 1211.4 18.881L1210.42 17.2595L1216.56 11.705L1216.82 12.395H1208.58V10.44H1218.34V12.4065L1213.11 17.4205L1213.08 16.696C1214.18 16.6193 1215.14 16.7995 1215.96 17.2365C1216.78 17.6735 1217.42 18.2983 1217.87 19.111C1218.33 19.9237 1218.56 20.8552 1218.56 21.9055C1218.56 22.9635 1218.32 23.8988 1217.84 24.7115C1217.37 25.5242 1216.73 26.1643 1215.91 26.632C1215.1 27.092 1214.18 27.322 1213.15 27.322Z" fill="black"/>
<defs>
<linearGradient id="paint0_linear_10_43" x1="94.5" y1="8.99964" x2="781" y2="18.9998" gradientUnits="userSpaceOnUse">
<stop stop-color="#54B74B"/>
<stop offset="1" stop-color="#1C7714"/>
</linearGradient>
</defs>
</svg>
